<?xml version="1.0" encoding="UTF-8"?>
<svg xmlns="http://www.w3.org/2000/svg" xmlns:xlink="http://www.w3.org/1999/xlink" width="65px" height="65px" viewBox="0 0 65 65" version="1.1">
<g id="surface1">
<path style=" stroke:none;fill-rule:nonzero;fill:rgb(0%,0%,0%);fill-opacity:1;" d="M 36.960938 13.519531 C 35.863281 13.636719 34.957031 13.902344 34.179688 14.324219 C 31.609375 15.730469 29.628906 18.175781 30.363281 19.03125 C 30.804688 19.554688 32.90625 21.195312 33.957031 21.847656 C 34.285156 22.050781 34.539062 22.308594 34.476562 22.371094 C 34.453125 22.398438 34.511719 22.46875 34.621094 22.519531 C 34.859375 22.644531 35.183594 22.574219 35.414062 22.34375 C 35.601562 22.160156 35.660156 21.9375 35.503906 22.035156 C 35.457031 22.0625 35.414062 22.042969 35.414062 22 C 35.414062 21.945312 35.457031 21.902344 35.519531 21.902344 C 35.574219 21.902344 35.601562 21.875 35.574219 21.847656 C 35.539062 21.824219 35.617188 21.585938 35.742188 21.308594 C 36.058594 20.628906 36.09375 19.886719 35.863281 19.183594 C 35.511719 18.105469 35.414062 16.867188 35.671875 16.867188 C 35.792969 16.867188 35.960938 16.3125 35.855469 16.25 C 35.714844 16.160156 36.269531 15.277344 36.484375 15.277344 C 36.519531 15.277344 36.464844 15.527344 36.367188 15.824219 C 36.058594 16.804688 36.058594 17.566406 36.378906 18.6875 C 36.765625 20.082031 36.808594 20.628906 36.570312 21.167969 C 35.875 22.707031 35.644531 22.960938 34.945312 22.960938 C 34.441406 22.960938 33.976562 22.777344 32.996094 22.183594 C 32.667969 21.980469 32.359375 21.832031 32.324219 21.859375 C 32.289062 21.882812 32.226562 22.042969 32.191406 22.230469 C 31.960938 23.472656 30.910156 26.328125 30.105469 27.917969 C 28.921875 30.257812 27.882812 31.660156 24.507812 35.503906 C 19.402344 41.324219 17.714844 43.910156 17.1875 46.71875 C 17.007812 47.644531 17.007812 49.234375 17.1875 50.164062 C 17.328125 50.914062 17.8125 52.078125 18.289062 52.832031 L 18.5625 53.253906 L 21.054688 53.253906 C 26.820312 53.253906 29.375 52.792969 31.140625 51.460938 C 33.691406 49.527344 34.027344 45.90625 31.820312 44.105469 C 31.050781 43.476562 30.53125 43.320312 29.1875 43.320312 C 28.128906 43.320312 27.996094 43.335938 27.457031 43.566406 C 26.652344 43.910156 25.929688 44.519531 25.503906 45.21875 C 24.90625 46.214844 24.800781 46.957031 25.207031 47.300781 C 25.683594 47.714844 26.230469 47.488281 26.40625 46.78125 C 26.636719 45.886719 27.007812 45.410156 27.785156 45.03125 C 29.25 44.308594 30.929688 44.75 31.527344 46.03125 C 32.15625 47.355469 31.863281 48.730469 30.714844 49.890625 C 29.445312 51.167969 27.695312 51.613281 23.175781 51.804688 L 21.742188 51.867188 L 21.628906 51.082031 C 21.558594 50.648438 21.503906 49.640625 21.503906 48.839844 C 21.503906 47.644531 21.550781 47.214844 21.714844 46.453125 C 22.132812 44.574219 22.839844 43.246094 24.164062 41.871094 C 25.398438 40.582031 26.792969 39.652344 29.144531 38.558594 C 31.777344 37.332031 32.421875 36.996094 32.808594 36.625 C 33.03125 36.414062 33.207031 36.191406 33.207031 36.136719 C 33.207031 36.085938 33.074219 35.972656 32.925781 35.890625 C 32.402344 35.625 32.113281 35.34375 31.8125 34.847656 C 31.140625 33.753906 31.441406 32.113281 32.507812 31 C 32.886719 30.601562 32.925781 30.523438 32.984375 29.992188 C 33.011719 29.675781 33.054688 29.410156 33.082031 29.410156 C 33.101562 29.410156 33.417969 29.628906 33.789062 29.894531 C 34.460938 30.371094 34.476562 30.378906 35.078125 30.378906 L 35.695312 30.378906 L 36.589844 29.585938 C 37.199219 29.039062 37.5 28.824219 37.542969 28.898438 C 37.667969 29.117188 38.242188 31.582031 38.417969 32.632812 C 39.019531 36.183594 38.839844 38.816406 37.71875 43 C 36.855469 46.214844 36.632812 47.8125 36.808594 49.703125 C 36.863281 50.320312 36.960938 51.046875 37.011719 51.320312 L 37.109375 51.824219 L 37.550781 51.875 C 38.097656 51.957031 38.496094 52.300781 38.515625 52.714844 C 38.523438 52.867188 38.53125 53.042969 38.539062 53.09375 C 38.550781 53.183594 39.007812 53.21875 40.476562 53.238281 L 42.390625 53.253906 L 42.390625 52.441406 C 42.390625 51.277344 42.136719 50.90625 41.191406 50.667969 L 40.757812 50.558594 L 40.589844 49.898438 C 40.457031 49.378906 40.421875 48.910156 40.421875 47.644531 C 40.414062 45.878906 40.484375 45.429688 41.074219 43.363281 C 41.542969 41.710938 41.90625 40.210938 42.144531 38.886719 C 42.3125 37.914062 42.347656 37.464844 42.339844 35.679688 L 42.339844 33.605469 L 41.921875 31.5625 C 41.375 28.824219 41.304688 28.15625 41.359375 26.070312 C 41.402344 24.226562 41.5 23.675781 41.90625 22.863281 C 42.292969 22.113281 42.523438 21.917969 43.839844 21.285156 C 44.527344 20.957031 45.359375 20.496094 45.703125 20.277344 L 46.320312 19.863281 L 46.867188 19.96875 C 47.390625 20.074219 47.441406 20.066406 47.671875 19.898438 C 48.113281 19.570312 48.015625 19.242188 47.417969 19.058594 C 47.222656 19.003906 47.070312 18.945312 47.070312 18.925781 C 47.070312 18.898438 47.152344 18.582031 47.238281 18.210938 C 47.496094 17.195312 47.539062 16.761719 47.425781 16.347656 C 47.292969 15.835938 47.0625 15.753906 45.296875 15.585938 C 43.230469 15.382812 43.160156 15.367188 42.480469 14.714844 C 41.886719 14.140625 41.4375 13.855469 40.722656 13.628906 C 40.21875 13.460938 38.082031 13.40625 36.960938 13.519531 Z M 40.828125 15.746094 C 40.988281 15.816406 41.171875 15.941406 41.242188 16.027344 C 41.367188 16.179688 41.359375 16.179688 41.15625 16.125 C 41.03125 16.089844 40.863281 16.039062 40.773438 16.011719 C 40.5625 15.957031 40.058594 16.136719 39.875 16.339844 C 39.546875 16.699219 39.441406 16.433594 39.75 16.039062 C 40.058594 15.640625 40.367188 15.5625 40.828125 15.746094 Z M 40.828125 15.746094 "/>
<path style=" stroke:none;fill-rule:nonzero;fill:rgb(0%,0%,0%);fill-opacity:1;" d="M 34.9375 31.898438 C 34.65625 32.304688 34.839844 32.941406 35.238281 32.941406 C 35.554688 32.941406 35.722656 32.730469 35.722656 32.324219 C 35.722656 32.136719 35.660156 31.925781 35.601562 31.847656 C 35.433594 31.644531 35.097656 31.667969 34.9375 31.898438 Z M 34.9375 31.898438 "/>
<path style=" stroke:none;fill-rule:nonzero;fill:rgb(0%,0%,0%);fill-opacity:1;" d="M 32.464844 31.933594 C 32.21875 32.171875 32.339844 32.851562 32.632812 32.851562 C 32.835938 32.851562 33.03125 32.589844 33.03125 32.324219 C 33.03125 32.085938 32.835938 31.792969 32.675781 31.792969 C 32.632812 31.792969 32.535156 31.855469 32.464844 31.933594 Z M 32.464844 31.933594 "/>
<path style=" stroke:none;fill-rule:nonzero;fill:rgb(0%,0%,0%);fill-opacity:1;" d="M 32.96875 33.277344 L 32.773438 33.339844 L 32.941406 33.710938 C 33.03125 33.921875 33.128906 34.089844 33.152344 34.089844 C 33.179688 34.089844 33.332031 33.921875 33.472656 33.71875 C 33.71875 33.375 33.726562 33.339844 33.585938 33.285156 C 33.390625 33.207031 33.222656 33.207031 32.96875 33.277344 Z M 32.96875 33.277344 "/>
</g>
</svg>
