<?xml version="1.0" encoding="UTF-8"?>
<svg xmlns="http://www.w3.org/2000/svg" xmlns:xlink="http://www.w3.org/1999/xlink" width="91px" height="91px" viewBox="0 0 91 91" version="1.1">
<g id="surface1">
<path style=" stroke:none;fill-rule:nonzero;fill:rgb(0%,0%,0%);fill-opacity:1;" d="M 51.742188 18.929688 C 50.210938 19.089844 48.9375 19.460938 47.847656 20.054688 C 44.25 22.019531 41.480469 25.445312 42.507812 26.644531 C 43.125 27.375 46.070312 29.675781 47.539062 30.589844 C 47.996094 30.875 48.355469 31.230469 48.269531 31.316406 C 48.234375 31.355469 48.320312 31.453125 48.46875 31.527344 C 48.800781 31.703125 49.257812 31.601562 49.582031 31.28125 C 49.839844 31.023438 49.925781 30.710938 49.703125 30.847656 C 49.640625 30.886719 49.582031 30.859375 49.582031 30.800781 C 49.582031 30.726562 49.640625 30.664062 49.730469 30.664062 C 49.800781 30.664062 49.839844 30.625 49.800781 30.589844 C 49.753906 30.550781 49.863281 30.21875 50.039062 29.835938 C 50.484375 28.882812 50.53125 27.84375 50.210938 26.855469 C 49.714844 25.347656 49.582031 23.617188 49.9375 23.617188 C 50.113281 23.617188 50.347656 22.835938 50.199219 22.75 C 50 22.625 50.78125 21.390625 51.078125 21.390625 C 51.125 21.390625 51.050781 21.734375 50.914062 22.15625 C 50.484375 23.527344 50.484375 24.59375 50.929688 26.164062 C 51.472656 28.117188 51.535156 28.882812 51.199219 29.636719 C 50.222656 31.789062 49.902344 32.148438 48.925781 32.148438 C 48.21875 32.148438 47.566406 31.886719 46.191406 31.058594 C 45.734375 30.773438 45.300781 30.5625 45.253906 30.601562 C 45.203125 30.636719 45.117188 30.859375 45.066406 31.121094 C 44.746094 32.863281 43.273438 36.859375 42.148438 39.082031 C 40.492188 42.359375 39.035156 44.324219 34.308594 49.703125 C 27.164062 57.851562 24.800781 61.472656 24.0625 65.40625 C 23.8125 66.703125 23.8125 68.929688 24.0625 70.226562 C 24.257812 71.277344 24.9375 72.910156 25.605469 73.960938 L 25.988281 74.554688 L 29.476562 74.554688 C 37.550781 74.554688 41.125 73.914062 43.597656 72.046875 C 47.167969 69.339844 47.640625 64.269531 44.546875 61.746094 C 43.472656 60.867188 42.742188 60.644531 40.863281 60.644531 C 39.378906 60.644531 39.195312 60.671875 38.441406 60.992188 C 37.316406 61.472656 36.300781 62.328125 35.707031 63.304688 C 34.867188 64.703125 34.71875 65.738281 35.289062 66.222656 C 35.953125 66.804688 36.722656 66.480469 36.96875 65.492188 C 37.289062 64.242188 37.808594 63.578125 38.898438 63.042969 C 40.949219 62.03125 43.300781 62.648438 44.140625 64.441406 C 45.019531 66.296875 44.609375 68.226562 43.003906 69.84375 C 41.222656 71.636719 38.773438 72.257812 32.445312 72.527344 L 30.441406 72.613281 L 30.28125 71.515625 C 30.179688 70.910156 30.105469 69.5 30.105469 68.375 C 30.105469 66.703125 30.167969 66.097656 30.402344 65.035156 C 30.984375 62.402344 31.972656 60.546875 33.828125 58.617188 C 35.558594 56.8125 37.511719 55.515625 40.800781 53.980469 C 44.484375 52.261719 45.390625 51.792969 45.933594 51.273438 C 46.242188 50.976562 46.488281 50.667969 46.488281 50.59375 C 46.488281 50.519531 46.304688 50.359375 46.09375 50.246094 C 45.363281 49.875 44.957031 49.480469 44.535156 48.789062 C 43.597656 47.253906 44.015625 44.957031 45.511719 43.398438 C 46.042969 42.839844 46.09375 42.730469 46.179688 41.988281 C 46.21875 41.542969 46.277344 41.171875 46.316406 41.171875 C 46.339844 41.171875 46.785156 41.480469 47.304688 41.851562 C 48.246094 42.519531 48.269531 42.53125 49.109375 42.53125 L 49.976562 42.53125 L 51.222656 41.417969 C 52.078125 40.652344 52.5 40.355469 52.558594 40.457031 C 52.734375 40.765625 53.535156 44.214844 53.785156 45.683594 C 54.625 50.65625 54.378906 54.339844 52.808594 60.199219 C 51.59375 64.703125 51.285156 66.9375 51.535156 69.585938 C 51.609375 70.449219 51.742188 71.464844 51.816406 71.847656 L 51.953125 72.550781 L 52.574219 72.625 C 53.339844 72.738281 53.894531 73.21875 53.921875 73.800781 C 53.933594 74.011719 53.945312 74.257812 53.957031 74.332031 C 53.96875 74.457031 54.613281 74.507812 56.664062 74.53125 L 59.347656 74.554688 L 59.347656 73.417969 C 59.347656 71.785156 58.988281 71.265625 57.667969 70.933594 L 57.058594 70.785156 L 56.824219 69.855469 C 56.640625 69.128906 56.589844 68.472656 56.589844 66.703125 C 56.578125 64.230469 56.675781 63.601562 57.503906 60.707031 C 58.160156 58.394531 58.667969 56.292969 59 54.4375 C 59.238281 53.078125 59.285156 52.449219 59.273438 49.949219 L 59.273438 47.046875 L 58.691406 44.1875 C 57.925781 40.355469 57.828125 39.417969 57.902344 36.5 C 57.964844 33.914062 58.097656 33.148438 58.667969 32.011719 C 59.210938 30.960938 59.535156 30.6875 61.375 29.796875 C 62.339844 29.339844 63.503906 28.695312 63.984375 28.386719 L 64.851562 27.808594 L 65.617188 27.957031 C 66.347656 28.105469 66.421875 28.089844 66.742188 27.855469 C 67.359375 27.398438 67.222656 26.941406 66.382812 26.683594 C 66.109375 26.609375 65.902344 26.519531 65.902344 26.496094 C 65.902344 26.460938 66.011719 26.015625 66.136719 25.496094 C 66.496094 24.074219 66.554688 23.46875 66.394531 22.886719 C 66.210938 22.167969 65.886719 22.058594 63.414062 21.824219 C 60.523438 21.539062 60.421875 21.511719 59.472656 20.597656 C 58.644531 19.796875 58.011719 19.398438 57.011719 19.078125 C 56.304688 18.84375 53.3125 18.769531 51.742188 18.929688 Z M 57.160156 22.046875 C 57.382812 22.144531 57.640625 22.316406 57.742188 22.441406 C 57.914062 22.652344 57.902344 22.652344 57.617188 22.578125 C 57.445312 22.527344 57.207031 22.453125 57.085938 22.417969 C 56.789062 22.34375 56.082031 22.589844 55.824219 22.875 C 55.367188 23.378906 55.21875 23.007812 55.652344 22.453125 C 56.082031 21.898438 56.515625 21.785156 57.160156 22.046875 Z M 57.160156 22.046875 "/>
<path style=" stroke:none;fill-rule:nonzero;fill:rgb(0%,0%,0%);fill-opacity:1;" d="M 48.914062 44.660156 C 48.515625 45.226562 48.777344 46.117188 49.332031 46.117188 C 49.777344 46.117188 50.011719 45.820312 50.011719 45.253906 C 50.011719 44.992188 49.925781 44.695312 49.839844 44.585938 C 49.605469 44.300781 49.136719 44.335938 48.914062 44.660156 Z M 48.914062 44.660156 "/>
<path style=" stroke:none;fill-rule:nonzero;fill:rgb(0%,0%,0%);fill-opacity:1;" d="M 45.449219 44.707031 C 45.105469 45.042969 45.277344 45.996094 45.683594 45.996094 C 45.96875 45.996094 46.242188 45.625 46.242188 45.253906 C 46.242188 44.917969 45.96875 44.511719 45.746094 44.511719 C 45.683594 44.511719 45.550781 44.597656 45.449219 44.707031 Z M 45.449219 44.707031 "/>
<path style=" stroke:none;fill-rule:nonzero;fill:rgb(0%,0%,0%);fill-opacity:1;" d="M 46.15625 46.589844 L 45.882812 46.675781 L 46.117188 47.195312 C 46.242188 47.492188 46.378906 47.726562 46.414062 47.726562 C 46.453125 47.726562 46.664062 47.492188 46.859375 47.207031 C 47.207031 46.722656 47.21875 46.675781 47.019531 46.601562 C 46.75 46.488281 46.515625 46.488281 46.15625 46.589844 Z M 46.15625 46.589844 "/>
</g>
</svg>
